<?xml version="1.0" encoding="UTF-8" standalone="no"?>
<!-- Created with Inkscape (http://www.inkscape.org/) -->

<svg
   xmlns:dc="http://purl.org/dc/elements/1.1/"
   xmlns:cc="http://creativecommons.org/ns#"
   xmlns:rdf="http://www.w3.org/1999/02/22-rdf-syntax-ns#"
   xmlns:svg="http://www.w3.org/2000/svg"
   xmlns="http://www.w3.org/2000/svg"
   version="1.1"
   width="219.67999"
   height="148.75"
   id="svg3377">
  <defs
     id="defs3379" />
  <metadata
     id="metadata3382">
    <rdf:RDF>
      <cc:Work
         rdf:about="">
        <dc:format>image/svg+xml</dc:format>
        <dc:type
           rdf:resource="http://purl.org/dc/dcmitype/StillImage" />
        <dc:title></dc:title>
      </cc:Work>
    </rdf:RDF>
  </metadata>
  <g
     transform="translate(0,-903.61218)"
     id="layer1">
    <g
       transform="matrix(1.25,0,0,-1.25,-873.037,1052.3622)"
       id="logoIcon">
      <g
         transform="translate(786.3046,13.6914)"
         id="g3181">
        <path
           d="m 0,0 c 0,0 42.789,31.701 42.789,59.817 0,15.554 -10.496,22.567 -21.213,22.567 C 10.268,82.384 0,67.379 0,67.379 c 0,0 -9.159,15.005 -21.576,15.005 -13.441,0 -21.213,-9.824 -21.213,-22.067 C -42.789,31.289 0,0 0,0"
           id="path3183"
           style="fill:#ed2790;fill-opacity:1;fill-rule:nonzero;stroke:none" />
      </g>
      <g
         transform="translate(735.4296,0)"
         id="g3215">
        <path
           d="m 0,0 -4.25,0 c -5.918,0 -10.25,1 -13,3 -2.75,2 -4.605,4.709 -5.562,8.125 -0.959,3.416 -1.459,8.875 -1.5,16.375 -0.043,7.5 -0.293,12.813 -0.75,15.938 -0.459,3.125 -1.625,5.562 -3.5,7.312 -1.875,1.75 -4.688,2.707 -8.438,2.875 l 0,11.75 c 4,0 6.957,1.063 8.875,3.188 1.916,2.125 3,4.707 3.25,7.75 0.25,3.041 0.416,8.791 0.5,17.25 0.082,8.457 0.979,14.166 2.688,17.125 1.707,2.957 3.791,5.082 6.249,6.375 2.458,1.291 6.188,1.937 11.188,1.937 l 4.25,0 0,-11.25 -2.75,0 c -2.918,0 -5.062,-0.418 -6.438,-1.25 -1.375,-0.834 -2.25,-2.105 -2.625,-3.812 -0.375,-1.709 -0.562,-4.813 -0.562,-9.313 0,-12.418 -0.793,-20.543 -2.375,-24.375 -1.584,-3.834 -4.668,-7 -9.25,-9.5 2.416,-1.168 4.52,-2.812 6.313,-4.937 1.791,-2.125 3.124,-4.834 3.999,-8.125 0.875,-3.293 1.313,-8.688 1.313,-16.188 0,-7.5 0.166,-12.188 0.5,-14.063 0.332,-1.874 1.207,-3.166 2.625,-3.874 C -7.834,11.605 -4.75,11.25 0,11.25 L 0,0 z"
           id="path3217"
           style="fill:#00b0f0;fill-opacity:1;fill-rule:nonzero;stroke:none" />
      </g>
      <g
         transform="translate(874.1796,53.625)"
         id="g3219">
        <path
           d="m 0,0 c -3.668,-0.168 -6.459,-1.105 -8.375,-2.813 -1.918,-1.708 -3.105,-4.146 -3.563,-7.312 -0.458,-3.168 -0.708,-8.521 -0.75,-16.062 -0.042,-7.543 -0.562,-13.022 -1.562,-16.438 -1,-3.416 -2.875,-6.104 -5.625,-8.063 -2.75,-1.957 -7.043,-2.937 -12.875,-2.937 l -4.25,0 0,11.25 c 4.082,0 6.813,0.187 8.188,0.562 1.375,0.375 2.353,1.106 2.937,2.188 0.582,1.082 0.938,2.729 1.063,4.937 0.125,2.208 0.187,7.126 0.187,14.751 0,7.624 0.979,13.353 2.938,17.187 1.957,3.832 4.853,6.707 8.687,8.625 -3.418,1.832 -5.937,4 -7.562,6.5 -1.625,2.5 -2.709,5.625 -3.25,9.375 -0.543,3.75 -0.813,10.625 -0.813,20.625 0,5.166 -0.687,8.416 -2.062,9.75 -1.375,1.332 -3.897,2 -7.563,2 l -2.75,0 0,11.25 4.25,0 c 5.75,0 9.957,-0.918 12.625,-2.75 2.666,-1.834 4.562,-4.355 5.687,-7.562 1.125,-3.209 1.729,-8.606 1.813,-16.188 0.082,-7.584 0.25,-12.918 0.5,-16 0.25,-3.084 1.332,-5.709 3.25,-7.875 C -6.959,12.832 -4,11.75 0,11.75 L 0,0 z"
           id="path3221"
           style="fill:#00b0f0;fill-opacity:1;fill-rule:nonzero;stroke:none" />
      </g>
    </g>
  </g>
</svg>
